<?xml version="1.0" encoding="UTF-8" standalone="no"?><!DOCTYPE svg PUBLIC "-//W3C//DTD SVG 1.1//EN" "http://www.w3.org/Graphics/SVG/1.1/DTD/svg11.dtd"><!-- Generated by graphviz version 2.40.1 (20161225.0304)
 --><!-- Title: G Pages: 1 --><svg xmlns="http://www.w3.org/2000/svg" xmlns:xlink="http://www.w3.org/1999/xlink" width="274pt" height="169pt" viewBox="0.00 0.00 273.86 169.48">
<g id="graph0" class="graph" transform="scale(1 1) rotate(0) translate(4 165.4776)">
<title>G</title>
<polygon fill="#ffffff" stroke="transparent" points="-4,4 -4,-165.4776 269.864,-165.4776 269.864,4 -4,4"/>
<!-- a -->
<g id="node1" class="node">
<title>a</title>
<polygon fill="none" stroke="#000000" points="265.796,-161.4776 .068,-161.4776 .068,-125.4776 265.796,-125.4776 265.796,-161.4776"/>
<text text-anchor="start" x="83.568" y="-145.8776" font-family="Times,serif" font-size="14.00" fill="#000000">Parse, Typecheck</text>
<text text-anchor="start" x="8" y="-131.8776" font-family="Times,serif" font-size="14.00" fill="#000000">        </text>
<text text-anchor="start" x="36" y="-131.8776" font-family="Times,serif" font-size="10.00" fill="#000000">On the full rich source language to produce good errors</text>
</g>
<!-- b -->
<g id="node2" class="node">
<title>b</title>
<polygon fill="none" stroke="#000000" points="250.7558,-104.1545 103.1492,-104.1545 103.1492,-68.1545 250.7558,-68.1545 250.7558,-104.1545"/>
<text text-anchor="start" x="150.9034" y="-88.5545" font-family="Times,serif" font-size="14.00" fill="#000000">Optimize</text>
<text text-anchor="start" x="111.301" y="-74.5545" font-family="Times,serif" font-size="14.00" fill="#000000">        </text>
<text text-anchor="start" x="139.301" y="-74.5545" font-family="Times,serif" font-size="10.00" fill="#000000">On a simplified IR (Core)</text>
</g>
<!-- a&#45;&gt;b -->
<g id="edge1" class="edge">
<title>a-&gt;b</title>
<path fill="none" stroke="#000000" d="M146.8604,-125.3402C149.9916,-121.2627 153.3763,-116.8552 156.7068,-112.5183"/>
<polygon fill="#000000" stroke="#000000" points="159.6489,-114.4336 162.9637,-104.3707 154.097,-110.1701 159.6489,-114.4336"/>
</g>
<!-- c -->
<g id="node3" class="node">
<title>c</title>
<polygon fill="none" stroke="#000000" points="257.1487,-36 144.9653,-36 144.9653,0 257.1487,0 257.1487,-36"/>
<text text-anchor="start" x="160.8343" y="-20.4" font-family="Times,serif" font-size="14.00" fill="#000000">Generate code</text>
<text text-anchor="start" x="152.7615" y="-6.4" font-family="Times,serif" font-size="14.00" fill="#000000">        </text>
<text text-anchor="start" x="180.7615" y="-6.4" font-family="Times,serif" font-size="10.00" fill="#000000">To C-- or LLVM</text>
</g>
<!-- b&#45;&gt;c -->
<g id="edge2" class="edge">
<title>b-&gt;c</title>
<path fill="none" stroke="#000000" d="M183.4121,-67.8904C185.8168,-61.0911 188.6032,-53.2128 191.2414,-45.7533"/>
<polygon fill="#000000" stroke="#000000" points="194.5449,-46.9094 194.5796,-36.3146 187.9455,-44.5753 194.5449,-46.9094"/>
</g>
</g>
</svg>